<?xml version="1.0" encoding="UTF-8"?>
<svg xmlns="http://www.w3.org/2000/svg" viewBox="0 0 899 1431.5">
  <defs>
    <style>
      .cls-1 {
        fill: #95d8ff;
      }

      .cls-2 {
        fill: #ffe694;
      }

      .cls-3 {
        isolation: isolate;
        opacity: .3;
      }

      .cls-3, .cls-4, .cls-5 {
        fill: #fff;
      }

      .cls-6 {
        fill: #f6d2a2;
      }

      .cls-7 {
        fill: #ffc300;
      }

      .cls-8 {
        fill: #040607;
      }

      .cls-9 {
        fill: #ddd;
      }

      .cls-10 {
        fill: #f5d1a4;
      }

      .cls-5 {
        stroke: #fff;
        stroke-miterlimit: 10;
        stroke-width: 1px;
      }

      .cls-11 {
        fill: #161616;
      }
    </style>
  </defs>
  <g id="Warstwa_1">
    <ellipse class="cls-9" cx="480.5" cy="1411" rx="290" ry="20.5"/>
    <path class="cls-1" d="M174,894c-28.69,150.62-50.88,392.82,113,477,269.42,138.39,591.07-64.26,460-363-79.7-181.65,36.15-418.56-157.44-526.43-150.84-85.18-395.5-13.28-397.62,181.52-7.74,70.66-5.94,167.91-17.94,230.91Z"/>
    <path class="cls-10" d="M540.34,1359.28c-14.9,28,4.1,56.7,24.7,61.6,24.5,5.9,45.3-26,59.1-48.9,2.6-3.8,5.2-8.1,7.7-12.7,12.6-23.3,22.4-55.5,9.4-73.4-12.1-15.1-32.4-4.5-47.1,8.5-2.8,2.4-5.6,5-8.4,7.8-15.1,16-28.4,33.2-41.3,49.8-1.5,2.5-2.8,4.9-4.1,7.4v-.1Z"/>
    <ellipse class="cls-5" cx="320.6" cy="665.06" rx="84.9" ry="94.5" transform="translate(-365.68 937.28) rotate(-85.9)"/>
    <ellipse class="cls-5" cx="572.86" cy="659.07" rx="84.9" ry="94.5" transform="translate(-125.49 1183.34) rotate(-85.9)"/>
    <path class="cls-4" d="M423.64,803.78c-.9,8.8-1.7,17.6-2.6,26.5-.5,5.4-1,11.1.9,15.9,2,4.8,6.2,7.7,10.6,7.9,8.6.5,15.6,1.6,18.8-8.5,2.8-9.1,2.2-25.6,3.1-35.2.3-3.2.9-12.4-4-13.3-4.8-.8-7.6-2.3-12.4-2.7-4.9-.4-9.9,2-13.4,6.5"/>
    <path class="cls-4" d="M451.84,807.68c.6,8.6,1.2,17.3,1.8,25.9.4,5.3.8,10.9,3.4,15.2,2.6,4.3,7,6.4,11.1,5.9,8-.9,11.1-4.6,13.6-11,3.3-8.4.5-25.3-.2-34.6-.2-3.1-1.1-12.1-5.8-12.1s-7.4-1-12-.6-8.9,3.5-11.4,8.4"/>
    <path class="cls-6" d="M518.54,784.68c-8.6-10.6-21.3-15.5-34.3-16-2.8-.3-5.6-.6-8.5-.9-5.8-.6-11.9-1.1-18-1.4-4.1-.2-8.2-.2-12.3-.2-21.5-1.3-49,2.8-57.7,25.3-1.4,5.9-2.9,12.9,2.7,18.3,16.1,14.3,36,4.6,54,5,3.2-.2,6.5-.3,9.7-.3,13.5.9,26.6,1.8,39.4,5.7,9,1.7,19.9,3.5,27.5-4.1,4.4-5.7,5.1-14.8,2.9-22.2-1.2-3.4-3-6.6-5.4-9.4v.2Z"/>
    <ellipse cx="315.06" cy="668.64" rx="27.1" ry="28" transform="translate(-392.06 883.88) rotate(-81.7)"/>
    <ellipse cx="577.36" cy="665.87" rx="27.1" ry="28" transform="translate(-128.08 1194.15) rotate(-85.9)"/>
    <ellipse class="cls-4" cx="577.78" cy="668.24" rx="8.7" ry="9.3" transform="translate(-130.06 1196.77) rotate(-85.9)"/>
    <ellipse class="cls-4" cx="305.27" cy="674.6" rx="8.7" ry="9.3" transform="translate(-389.42 930.85) rotate(-85.9)"/>
    <ellipse cx="451.82" cy="762.1" rx="17.1" ry="37.1" transform="translate(-317.28 1201.89) rotate(-89.1)"/>
    <path class="cls-10" d="M392.24,1359.28c10.6,30.4-16.3,56.6-40,58.6-28.3,2.4-44.6-32.8-55.1-57.9-2.1-4.2-4.1-8.9-5.9-13.9-9.1-25.3-13.2-59.2,4.9-75.4,16.5-13.5,36.7.1,50.3,15.4,2.6,2.9,5.2,5.9,7.6,9,13.3,18.3,24.5,37.5,35.3,56.2,1.1,2.7,2.1,5.4,2.9,8.1v-.1Z"/>
    <path class="cls-11" d="M756.44,1061.08c.7,0,1.3-.1,1.9-.2h0l-1.9.2Z"/>
    <path class="cls-3" d="M239.54,449.08s-35.4,39,1.7,83.5l-11.1,14.7s-44.1-33.1-14.4-80c0,0,8-13.2,23.9-18.2h-.1Z"/>
    <path class="cls-10" d="M190.07,932.5c-10.58,25.53-42.62,13.66-60.69,3.15-2.16-1.14-4.33-2.37-6.39-3.52-31.15-18.33-49.35-44.25-41.24-59.79,7.64-14.48,35.68-15.1,66.09-2.63,2.13.94,4.37,1.87,6.52,2.9,20.33,8.51,48.64,27.51,38.56,53.78-.74,2.11-1.79,4.16-2.94,6.22l.09-.11Z"/>
    <path class="cls-10" d="M721.96,940.96c-22.91-13.06-6.99-42.93,5.72-59.41,1.43-1.99,2.87-3.98,4.3-5.82,22.02-28.38,49.38-43.36,63.03-33.76,12.69,8.99,9.26,36.37-6.94,64.6-1.15,2-2.38,4.07-3.67,6.06-11.12,18.96-33.21,44.44-56.93,31.84-1.87-1-3.73-2.15-5.5-3.5h0Z"/>
    <g>
      <path class="cls-7" d="M190.04,877.08l-28.08-51.93-50.14-19.7c-6.46-15.63-33.14-40.85-56.43-64.46l68.85,57.3c15.4,12.38,37.48,17.34,65.8,15.35-8.64,12.34-7.41,34.74,0,63.43Z"/>
      <path class="cls-2" d="M179.01,845.75s-6.27-19.25-8.02-22.16c-1.75-2.91-40.72-12.45-52.9-20.37,0,0,37.1,14.55,49.39,15.22,12.28.67,15.54-1.12,15.54-1.12,0,0-6.8,12.33-4.01,28.43Z"/>
    </g>
    <g>
      <path class="cls-7" d="M805.58,785.89c9.04.54-22.18,49.03-22.18,49.03,34.25-51.49,71.77-96.04,115.6-127.13-40.99,20.37-106,83.03-136,82.75-24.3-.23-20.4-38.59-20.4-38.59l-20.39,82.98s31.45-31.68,72.28-44.38"/>
      <path class="cls-2" d="M740.04,781.39s-1,24.85-8.04,36.34c0,0,52.49-30.98,69.23-34.88,16.74-3.9,9.38,8.35,9.38,8.35,0,0,26.12-36.48,34.49-42.6,0,0-23.44,24.23-34.49,27.57-11.05,3.34-52.57,22-63.62,27.01l-6.95-21.79Z"/>
    </g>
    <g>
      <path class="cls-7" d="M41.11,814.06l17.45,46.5s1.29-26.81,13.76-34.7c12.47-7.89,45.43.37,45.43.37l-70.84-26.78,14.15,22.15-19.95-7.54Z"/>
      <path class="cls-2" d="M50.83,825.08l5.99,13.82s6.9-21.54,30.12-19.76l-27.65-10.45s10.96,6.24,8.42,10.18c-2.54,3.94-9.58,10.8-16.89,6.22Z"/>
    </g>
    <g>
      <path class="cls-7" d="M0,877.67l35.02,58.84-7.56-42.42,110.98,86.01c-45.62-37.08-94.41-73.08-106.04-121.78,0,0,5.43,26.08-6.75,22.73-12.18-3.35-25.65-3.38-25.65-3.38Z"/>
      <path class="cls-2" d="M24.3,910.39l-14.62-25.91s14.3,7.08,21.82-.04l29.77,30.82-31.7-25.53s-4.95,4.27-11.34,1.42l6.08,19.24Z"/>
    </g>
    <g>
      <path class="cls-7" d="M870.27,817.72s-25.26,8.77-37.56-.29c0,0,15.47,14.38,15.46,28.69-.01,14.31-28.44,84.71-28.44,84.71,0,0,24.89-69.63,37.92-75.25,8.4-3.62,4,26.3,4,26.3,0,0,8.76-41.46,9.47-44.32.71-2.87-13.51,14.79-14.61,5.45-1.11-9.34,13.75-25.28,13.75-25.28Z"/>
      <path class="cls-2" d="M860.59,825.23s-7.97,4.92-14.06,1.34c0,0,8.16,17.11,4.25,27.34,0,0,11.14-4.09,13.2,1.58,0,0-.05-8.28-8.31-6,0,0-4.92-9.21-1.74-14.63,3.18-5.41,6.66-9.63,6.66-9.63Z"/>
    </g>
    <g>
      <path class="cls-7" d="M786.66,981.71l44.78-11.41s-24.77-3.71-30.93-15.76c-6.17-12.05,4.55-41.14,4.55-41.14l-31.42,61.67,21.87-10.73-8.85,17.36Z"/>
      <path class="cls-2" d="M797.8,973.94l13.38-4.12s-19.35-8.3-15.55-29.18l-12.26,24.07s6.81-9.34,10.23-6.66c3.42,2.68,9.14,9.71,4.21,15.89Z"/>
    </g>
  </g>
  <g id="Warstwa_2">
    <path d="M767.62,507.19c50.39-39.51,63.68-217.43,57.38-194.19-6.3,23.24-90.45,111.68-90.45,111.68,70.86-81.35-43.55-318.68-43.55-318.68-.73,25.18-31.46,109.19-58,141C614.89,160.18,525,0,525,0c-3.95,14.78-26.9,196.82-115.66,236.42-4.52-13.46-9.53-28.25-14.92-44.16-2.23-6.59-3.85-12.7-4.96-18.36-9.82-50.29,16.54-113.9,16.54-113.9-135.42,58.1-113.93,277.52-113.93,277.52-31.49-15.11-74.01-144.1-74.01-144.1-85.03,96.45-31.49,262.63-31.49,262.63-51.96-15.11-74.01-58.1-74.01-58.1-7.87,56.94,70.86,174.31,70.86,174.31-14.17-2.32-62.99-47.64-62.99-47.64,1.57,31.38,72.43,102.26,72.43,102.26,0,0,5.26,3.14,13.14-32.88,7.87-36.02,28,1,28,1,5-14-4.95-43.11-2-50,21-49,64.93-61.16,104-79,46-21,110,105,110,105,0,0,48.36-112.32,83-110s144.3,66.76,138,90-7,52-7,52c20-36,36,12,36,12,17.32-2.32,136.18-131.06,136.18-131.06-14.17,11.62-64.56,23.24-64.56,23.24Z"/>
  </g>
  <g id="Warstwa_3">
    <path class="cls-1" d="M690.54,500.38c-2,27.6-11.3,57.1-38.8,55.1s-74-36.2-72-63.8,36.5-49,62.5-41.7c26.5,7.5,50.3,22.8,48.3,50.4Z"/>
    <path class="cls-8" d="M653.06,531.79c8.41-16.01,10.33-36.86-.12-45.91-16.05-13.89-30.85-9.24-47.06,4.57,18.93,12.42,34.45,26.28,47.18,41.34Z"/>
    <path class="cls-1" d="M267.87,445.55c28.43,3.83,50.17,27.1,45.69,53.21-4.6,27-58.4,58.41-83.93,45.21-22.61-11.73-30.51-46.76-17.85-70.58,12.88-24.27,35.54-30.58,56.09-27.83Z"/>
    <path class="cls-8" d="M243.97,527.47c13.64-14.95,29.47-27.93,46.88-38.89-12.47-12.13-25.77-14.96-39.64-8.37-15.58,7.29-21.35,30.38-7.35,47.14.03.04.07.08.1.12Z"/>
  </g>
  <g id="Warstwa_4">
    <path d="M279.59,558.42s19.49-61.39,73.42-.47,59.65,62.63,74.95,67.04c0,0-.76,13.23-.77,18.62,0,2.89-98.65-76.84-119.22-85.19-11.68-4.74-28.38,0-28.38,0Z"/>
    <path d="M614,559.74s-19.49-61.39-73.42-.47c-53.93,60.91-59.65,62.63-74.95,67.04,0,0,.76,13.23.77,18.62,0,2.89,98.65-76.84,119.22-85.19,11.68-4.74,28.38,0,28.38,0Z"/>
  </g>
</svg>